<svg id="Outline" height="512" viewBox="0 0 48 48" width="512" xmlns="http://www.w3.org/2000/svg"><g><path d="m41 11.25h-34c-3.17041 0-5.75 2.57959-5.75 5.75v14c0 3.1709 2.57959 5.75 5.75 5.75h34c3.1709 0 5.75-2.5791 5.75-5.75v-14c0-3.17041-2.5791-5.75-5.75-5.75zm4.25 19.75c0 2.34375-1.90625 4.25-4.25 4.25h-34c-2.34326 0-4.25-1.90625-4.25-4.25v-14c0-2.34326 1.90674-4.25 4.25-4.25h34c2.34375 0 4.25 1.90674 4.25 4.25z"/><path d="m41 14.25h-34c-1.5166 0-2.75 1.2334-2.75 2.75v14c0 1.5166 1.2334 2.75 2.75 2.75h34c1.5166 0 2.75-1.2334 2.75-2.75v-14c0-1.5166-1.2334-2.75-2.75-2.75zm1.25 16.75c0 .68945-.56055 1.25-1.25 1.25h-34c-.68945 0-1.25-.56055-1.25-1.25v-14c0-.68945.56055-1.25 1.25-1.25h34c.68945 0 1.25.56055 1.25 1.25z"/><path d="m13 20.25c-2.06787 0-3.75 1.68213-3.75 3.75 0 2.06738 1.68213 3.75 3.75 3.75s3.75-1.68262 3.75-3.75c0-2.06787-1.68213-3.75-3.75-3.75zm0 6c-1.24072 0-2.25-1.00977-2.25-2.25 0-1.24072 1.00928-2.25 2.25-2.25s2.25 1.00928 2.25 2.25c0 1.24023-1.00928 2.25-2.25 2.25z"/><path d="m25.75 22c0-1.5166-1.2334-2.75-2.75-2.75h-2c-.41406 0-.75.33594-.75.75v7.99993c0 .96708 1.5.97569 1.5.00007v-3.25h.78638s1.78507 3.56965 1.7927 3.58491c.43647.87282 1.77409.19239 1.34182-.66987l-1.57318-3.14679c.97088-.42487 1.65228-1.39221 1.65228-2.51825zm-2.75 1.25h-1.25v-2.5h1.25c.68945 0 1.25.56055 1.25 1.25s-.56055 1.25-1.25 1.25z"/><path d="m31 20.75c.95799-.00005.97517-1.5 0-1.5h-3c-.41406 0-.75.33594-.75.75v8c0 .41406.33594.75.75.75h2.99998c.94151 0 .99155-1.5.00002-1.5h-2.25v-2.5h2.24996c.96308 0 .9766-1.5.00004-1.5h-2.25v-2.5z"/><path d="m36 20.75c.68933 0 1.2498.56035 1.25 1.24963.00027.93672 1.5.95658 1.5.00037 0-1.5166-1.2334-2.75-2.75-2.75s-2.75 1.2334-2.75 2.75v4c0 1.5166 1.2334 2.75 2.75 2.75 1.51649 0 2.74982-1.23322 2.75-2.74967.00011-.94997-1.49999-.97764-1.5-.00033 0 .68945-.56055 1.25-1.25 1.25s-1.25-.56055-1.25-1.25v-4c0-.68945.56055-1.25 1.25-1.25z"/></g></svg>