<?xml version="1.0" encoding="UTF-8"?>
<svg xmlns="http://www.w3.org/2000/svg" xmlns:xlink="http://www.w3.org/1999/xlink" version="1.1" id="Layer_1" x="0px" y="0px" viewBox="0 0 512 512" style="enable-background:new 0 0 512 512;" xml:space="preserve" width="512" height="512">
<g>
	
		<circle style="fill:none;stroke:#000000;stroke-width:30;stroke-linecap:round;stroke-linejoin:round;stroke-miterlimit:10;" cx="384.533" cy="111.4" r="32.133"/>
	
		<circle style="fill:none;stroke:#000000;stroke-width:30;stroke-linecap:round;stroke-linejoin:round;stroke-miterlimit:10;" cx="143.533" cy="207.8" r="64.267"/>
	<path style="fill:none;stroke:#000000;stroke-width:30;stroke-linecap:round;stroke-linejoin:round;stroke-miterlimit:10;" d="&#10;&#9;&#9;M448.8,207.8c0-35.491-28.775-64.267-64.267-64.267s-64.267,28.775-64.267,64.267H352.4l32.133,32.133l32.133-32.133H448.8z"/>
	<path style="fill:none;stroke:#000000;stroke-width:30;stroke-linecap:round;stroke-linejoin:round;stroke-miterlimit:10;" d="&#10;&#9;&#9;M255.582,337.578c-22.035-39.106-63.961-65.512-112.049-65.512C72.543,272.067,15,329.609,15,400.6"/>
	<path style="fill:none;stroke:#000000;stroke-width:30;stroke-linecap:round;stroke-linejoin:round;stroke-miterlimit:10;" d="&#10;&#9;&#9;M464.867,207.8c8.523,0,16.693-3.382,22.718-9.415c6.033-6.025,9.415-14.195,9.415-22.718c0-35.66,0-92.873,0-128.533&#10;&#9;&#9;c0-8.523-3.382-16.693-9.415-22.718C481.56,18.382,473.39,15,464.867,15c-42.754,0-117.913,0-160.667,0&#10;&#9;&#9;c-8.523,0-16.693,3.382-22.718,9.415c-6.033,6.025-9.415,14.195-9.415,22.718c0,35.66,0,92.873,0,128.533&#10;&#9;&#9;c0,8.523,3.382,16.693,9.415,22.718c6.025,6.033,14.195,9.415,22.718,9.415c22.365,0,48.2,0,48.2,0l32.133,32.133l32.133-32.133&#10;&#9;&#9;H464.867z"/>
	
		<polygon style="fill:none;stroke:#000000;stroke-width:30;stroke-linecap:round;stroke-linejoin:round;stroke-miterlimit:10;" points="&#10;&#9;&#9;497,288.133 272.067,288.133 223.867,432.733 448.8,432.733 &#9;"/>
	
		<rect x="15" y="432.733" style="fill:none;stroke:#000000;stroke-width:30;stroke-linecap:round;stroke-linejoin:round;stroke-miterlimit:10;" width="482" height="64.267"/>
	
		<line style="fill:none;stroke:#000000;stroke-width:30;stroke-linecap:round;stroke-linejoin:round;stroke-miterlimit:10;" x1="352.4" y1="360.433" x2="368.467" y2="360.433"/>
	<path style="fill:none;stroke:#000000;stroke-width:30;stroke-linecap:round;stroke-linejoin:round;stroke-miterlimit:10;" d="&#10;&#9;&#9;M192.8,432.733c0-35.491-28.775-64.267-64.267-64.267c-22.084,0-62.988,0-81.4,0c-8.523,0-16.693,3.382-22.718,9.415&#10;&#9;&#9;C18.382,383.907,15,392.077,15,400.6c0,17.746,14.388,32.133,32.133,32.133H192.8z"/>
</g>















</svg>
